<svg width="61" height="81" viewBox="0 0 61 81" fill="none" xmlns="http://www.w3.org/2000/svg">
<path fill-rule="evenodd" clip-rule="evenodd" d="M29.241 51.3472H31.3504L31.3639 40.5574H29.2511L29.241 51.3472ZM25.3226 44.955H27.4354L27.4691 39.0892H25.353L25.3226 44.955ZM33.2876 44.9111H35.4038L35.37 39.0892H33.2573L33.2876 44.9111ZM26.8211 14.0805C26.8211 16.0042 28.377 17.5601 30.3008 17.5601C32.2245 17.5601 33.7804 16.0042 33.7838 14.0805C33.7804 12.1601 32.2245 10.6042 30.3008 10.6009C28.377 10.6009 26.8211 12.1601 26.8211 14.0805ZM32.0389 22.7779C32.0389 21.816 31.2626 21.0398 30.3008 21.0398C29.3389 21.0398 28.5626 21.816 28.5626 22.7779C28.5626 23.7397 29.3389 24.516 30.3008 24.5194C31.2626 24.516 32.0389 23.7397 32.0389 22.7779ZM15.6364 40.5574C14.5159 30.672 19.7066 26.7469 21.8363 24.6578L21.8295 24.6274C21.3941 21.7586 19.494 9.43313 30.2771 0C41.2425 9.47363 39.4673 21.654 39.0319 24.6578C41.1615 26.7469 46.3691 30.672 45.2486 40.5574C43.5611 36.801 40.3279 34.3744 36.6053 33.5576C36.3083 34.2866 35.6029 35.9438 35.2789 36.6188L25.812 36.6491C25.4745 35.964 24.6544 34.263 24.3405 33.5104C20.8811 34.155 17.8875 35.8121 15.6364 40.5574ZM32.1098 60.6015V81L53.2575 69.7174V61.4014L39.6158 68.5429L32.1098 60.6015ZM7.60725 61.2427V69.7174L28.7348 80.9899V60.7466L21.4076 68.796L7.60725 61.2427ZM13.0646 44.334C11.016 40.0106 11.7619 34.3339 12.96 30.8306L0 37.5266L7.60725 44.685L0 53.0618L20.6989 64.5604L28.7348 55.7347V55.5964L10.341 45.8359L13.0646 44.334ZM53.2575 44.685L60.8648 53.4296L40.3144 64.3646L32.1098 55.6909V55.6774L50.5271 45.8359L47.7394 44.3003C49.9703 40.0376 49.1265 34.3879 47.8103 30.8576L60.8648 37.6684L53.1799 44.6411L53.2575 44.685Z" fill="#05EDE5"/>
</svg>
