<svg width="59" height="59" viewBox="0 0 59 59" fill="none" xmlns="http://www.w3.org/2000/svg">
<circle cx="29.5" cy="29.5" r="27.5" fill="#2222D6"/>
<path d="M29.5 0C13.2086 0 0 13.2086 0 29.5C0 45.7914 13.2086 59 29.5 59C45.7914 59 59 45.7914 59 29.5C59 13.2086 45.7914 0 29.5 0ZM36.875 19.6667H33.5562C32.2337 19.6667 31.9583 20.21 31.9583 21.5792V24.5833H36.875L36.3612 29.5H31.9583V46.7083H24.5833V29.5H19.6667V24.5833H24.5833V18.9095C24.5833 14.5607 26.872 12.2917 32.0296 12.2917H36.875V19.6667Z" fill="#FFFD00"/>
</svg>
