<svg width="81" height="48" viewBox="0 0 81 48" fill="none" xmlns="http://www.w3.org/2000/svg">
<path d="M80.6895 37.2634L72.7785 4.66088C72.0866 1.89 69.5959 0 66.7406 0H14.256C11.4041 0 8.91675 1.89 8.22488 4.66088L0.313875 37.2634C0.097875 38.1105 0 38.9205 0 39.6799C0 44.3374 3.69562 47.25 7.71862 47.25C9.85162 47.25 12.0791 46.4299 13.8949 44.6141L22.0151 34.9279C23.5001 37.098 26.1934 38.3265 29.025 38.3265C34.803 38.3265 36.2441 33.1222 40.5101 33.1222C44.2192 33.1222 45.9608 38.3265 52.1775 38.3265C55.0125 38.3265 57.5033 37.098 58.995 34.9279L67.1085 44.6141C68.9209 46.4299 71.1484 47.25 73.2848 47.25C77.3044 47.25 81 44.3374 81 39.6832C81 38.9205 80.9055 38.1139 80.6895 37.2634ZM53.1562 12.6562C54.5535 12.6562 55.6875 13.7869 55.6875 15.1875C55.6875 16.5881 54.5535 17.7188 53.1562 17.7188C51.759 17.7188 50.625 16.5881 50.625 15.1875C50.625 13.7869 51.759 12.6562 53.1562 12.6562ZM23.625 23.625H20.25V16.875H13.5V13.5H20.25V6.75H23.625V13.5H30.375V16.875H23.625V23.625ZM29.2208 33.7669C26.7705 33.7669 24.7792 31.7756 24.7792 29.3254C24.7792 26.8751 26.7705 24.8839 29.2208 24.8839C31.671 24.8839 33.6623 26.8751 33.6623 29.3254C33.6623 31.7756 31.6676 33.7669 29.2208 33.7669ZM43.875 20.25H37.125V16.875H43.875V20.25ZM51.786 33.7669C49.3324 33.7669 47.3445 31.7756 47.3445 29.3254C47.3445 26.8751 49.3358 24.8839 51.786 24.8839C54.2329 24.8839 56.2208 26.8751 56.2208 29.3254C56.2208 31.7756 54.2295 33.7669 51.786 33.7669ZM59.0625 23.625C57.6652 23.625 56.5312 22.4944 56.5312 21.0938C56.5312 19.6931 57.6652 18.5625 59.0625 18.5625C60.4598 18.5625 61.5938 19.6931 61.5938 21.0938C61.5938 22.4944 60.4598 23.625 59.0625 23.625ZM59.0625 11.7079C57.6652 11.7079 56.5312 10.5772 56.5312 9.17662C56.5312 7.776 57.6652 6.64537 59.0625 6.64537C60.4598 6.64537 61.5938 7.776 61.5938 9.17662C61.5938 10.5772 60.4598 11.7079 59.0625 11.7079ZM64.9147 17.7188C63.5175 17.7188 62.3835 16.5881 62.3835 15.1875C62.3835 13.7869 63.5175 12.6562 64.9147 12.6562C66.312 12.6562 67.446 13.7869 67.446 15.1875C67.446 16.5881 66.312 17.7188 64.9147 17.7188Z" fill="#E317D2"/>
</svg>
