<svg width="59" height="59" viewBox="0 0 59 59" fill="none" xmlns="http://www.w3.org/2000/svg">
<circle cx="29.5" cy="29.5" r="27.5" fill="#E317D2"/>
<path d="M36.4546 15.4924C34.6404 15.4088 34.0946 15.3941 29.5 15.3941C24.9054 15.3941 24.3621 15.4113 22.5478 15.4924C17.8795 15.7063 15.7063 17.9163 15.4924 22.5478C15.4113 24.3621 15.3916 24.9054 15.3916 29.5C15.3916 34.0946 15.4113 34.6379 15.4924 36.4546C15.7063 41.0738 17.8696 43.2962 22.5478 43.51C24.3596 43.5912 24.9054 43.6108 29.5 43.6108C34.0971 43.6108 34.6404 43.5936 36.4546 43.51C41.123 43.2986 43.2937 41.0812 43.51 36.4546C43.5912 34.6404 43.6084 34.0946 43.6084 29.5C43.6084 24.9054 43.5912 24.3621 43.51 22.5478C43.2937 17.9188 41.1181 15.7063 36.4546 15.4924ZM29.5 38.3377C24.6202 38.3377 20.6623 34.3822 20.6623 29.5C20.6623 24.6202 24.6202 20.6647 29.5 20.6647C34.3798 20.6647 38.3377 24.6202 38.3377 29.5C38.3377 34.3798 34.3798 38.3377 29.5 38.3377ZM38.6868 22.3807C37.5461 22.3807 36.6218 21.4563 36.6218 20.3157C36.6218 19.175 37.5461 18.2507 38.6868 18.2507C39.8275 18.2507 40.7518 19.175 40.7518 20.3157C40.7518 21.4539 39.8275 22.3807 38.6868 22.3807ZM35.2353 29.5C35.2353 32.6688 32.6663 35.2353 29.5 35.2353C26.3337 35.2353 23.7647 32.6688 23.7647 29.5C23.7647 26.3312 26.3337 23.7647 29.5 23.7647C32.6663 23.7647 35.2353 26.3312 35.2353 29.5ZM29.5 0C13.2086 0 0 13.2086 0 29.5C0 45.7914 13.2086 59 29.5 59C45.7914 59 59 45.7914 59 29.5C59 13.2086 45.7914 0 29.5 0ZM46.6051 36.5947C46.3224 42.8512 42.8389 46.3175 36.5972 46.6051C34.7608 46.6887 34.1733 46.7083 29.5 46.7083C24.8267 46.7083 24.2416 46.6887 22.4053 46.6051C16.1513 46.3175 12.6825 42.8463 12.3949 36.5947C12.3113 34.7608 12.2917 34.1733 12.2917 29.5C12.2917 24.8267 12.3113 24.2416 12.3949 22.4053C12.6825 16.1513 16.1537 12.6825 22.4053 12.3974C24.2416 12.3113 24.8267 12.2917 29.5 12.2917C34.1733 12.2917 34.7608 12.3113 36.5972 12.3974C42.8537 12.685 46.3248 16.1635 46.6051 22.4053C46.6887 24.2416 46.7083 24.8267 46.7083 29.5C46.7083 34.1733 46.6887 34.7608 46.6051 36.5947Z" fill="#FFFD00"/>
</svg>
