<svg width="59" height="59" viewBox="0 0 59 59" fill="none" xmlns="http://www.w3.org/2000/svg">
<circle cx="29.5" cy="29.5" r="27.5" fill="#05EDE5"/>
<path d="M29.5 0C13.2086 0 0 13.2086 0 29.5C0 45.7914 13.2086 59 29.5 59C45.7914 59 59 45.7914 59 29.5C59 13.2086 45.7914 0 29.5 0ZM44.4122 23.7106C44.8621 33.6423 37.4552 44.7146 24.3424 44.7146C20.355 44.7146 16.6454 43.5445 13.5208 41.5409C17.2673 41.9834 21.0065 40.9411 23.9737 38.618C20.886 38.5614 18.2777 36.5185 17.3755 33.7136C18.4842 33.925 19.5757 33.8635 20.5664 33.5931C17.1715 32.9097 14.8262 29.8515 14.9024 26.5795C15.8562 27.108 16.9428 27.4252 18.1007 27.462C14.9565 25.3602 14.0666 21.208 15.9152 18.0343C19.3962 22.3069 24.6005 25.1168 30.4686 25.4118C29.4385 20.9966 32.7892 16.7412 37.3495 16.7412C39.3776 16.7412 41.214 17.5992 42.5021 18.971C44.1099 18.6563 45.6242 18.0663 46.9861 17.2575C46.4576 18.907 45.339 20.2886 43.8812 21.1638C45.3095 20.9917 46.6715 20.6131 47.935 20.0502C46.991 21.4711 45.7963 22.715 44.4122 23.7106Z" fill="#FFFD00"/>
</svg>
